<svg width="20" height="12" viewBox="0 0 20 12" fill="none" xmlns="http://www.w3.org/2000/svg">
<path d="M10.4674 11.275C10.3606 11.2752 10.2549 11.2542 10.1564 11.2134C10.0578 11.1725 9.96822 11.1126 9.89291 11.037L1.22624 2.37028C1.07388 2.21793 0.988283 2.01129 0.988281 1.79582C0.988279 1.58036 1.07387 1.37371 1.22623 1.22135C1.37858 1.069 1.58522 0.9834 1.80069 0.983398C2.01616 0.983396 2.2228 1.06899 2.37516 1.22134L10.4674 9.31355L18.5596 1.22134C18.712 1.06948 18.9185 0.984309 19.1337 0.98452C19.3489 0.984732 19.5552 1.07031 19.7074 1.22247C19.8595 1.37464 19.9451 1.58095 19.9453 1.79614C19.9455 2.01133 19.8604 2.21781 19.7085 2.37027L11.0418 11.0369C10.9665 11.1125 10.877 11.1725 10.7784 11.2134C10.6798 11.2542 10.5741 11.2752 10.4674 11.275Z" fill="#067A46"/>
</svg>
