<svg width="9" height="15" viewBox="0 0 9 15" fill="none" xmlns="http://www.w3.org/2000/svg">
<path d="M8.42898 0.971174L8.40796 0.952274C8.11918 0.69259 7.67914 0.69907 7.39813 0.967143L0.61509 7.43789C0.466609 7.57954 0.461067 7.81473 0.602713 7.96321C0.608786 7.96958 0.615084 7.97573 0.621594 7.98165L7.56495 14.2951C7.85464 14.5585 8.29901 14.552 8.58081 14.2802L8.59434 14.2671C8.86067 14.0102 8.86831 13.586 8.6114 13.3197C8.60138 13.3093 8.59103 13.2993 8.58036 13.2895L2.42097 7.67904L8.44288 1.94446C8.70809 1.69191 8.71835 1.27217 8.46579 1.00695C8.45399 0.994557 8.44171 0.982621 8.42898 0.971174Z" fill="#067A46"/>
</svg>
