<svg width="9" height="14" viewBox="0 0 9 14" fill="none" xmlns="http://www.w3.org/2000/svg">
<path d="M0.371803 13.5171L0.39282 13.536C0.681601 13.7957 1.12164 13.7892 1.40265 13.5211L8.18569 7.05039C8.33417 6.90874 8.33971 6.67355 8.19807 6.52507C8.192 6.5187 8.1857 6.51255 8.17919 6.50663L1.23583 0.193142C0.946145 -0.0702654 0.501774 -0.0637176 0.219975 0.208111L0.206445 0.221163C-0.059888 0.478072 -0.0675268 0.902243 0.189383 1.16858C0.199402 1.17896 0.209754 1.18902 0.220422 1.19874L6.37981 6.80924L0.357901 12.5438C0.0926868 12.7964 0.0824281 13.2161 0.334987 13.4813C0.346793 13.4937 0.359074 13.5057 0.371803 13.5171Z" fill="#067A46"/>
</svg>
